<svg viewBox="0 0 1080 480" width="100%" xmlns="http://www.w3.org/2000/svg" role="img" aria-label="Jellyfin"><defs><linearGradient id="banner-jellyfin-grad" x1="0" y1="0" x2="1" y2="0"><stop offset="0%" stop-color="#AA5CC3"/><stop offset="100%" stop-color="#00A4DC"/></linearGradient><clipPath id="banner-jellyfin-grad-clip"><rect x="0.75" y="0.75" width="1078.5" height="478.5" rx="10" ry="10"/></clipPath></defs><defs><clipPath id="banner-jellyfin-grad-rain-clip"><rect x="0.75" y="105" width="1078.5" height="374.25"/></clipPath></defs><g clip-path="url(#banner-jellyfin-grad-clip)"><path d="M0.75,10.75 A10.0,10.0 0 0 1 10.75,0.75 L1069.25,0.75 A10.0,10.0 0 0 1 1079.25,10.75 L1079.25,105.00 L0.75,105.00 Z" fill="url(#banner-jellyfin-grad)"/><text x="540.0" y="51" text-anchor="middle" font-size="33" font-weight="700" font-family="Plus Jakarta Sans, system-ui, -apple-system, Segoe UI, sans-serif" fill="#ffffff">Jellyfin</text><text x="540.0" y="84" text-anchor="middle" font-size="20" font-family="Plus Jakarta Sans, system-ui, -apple-system, Segoe UI, sans-serif" fill="#ffffff" opacity="0.85">The Free Software Media System</text><rect x="0.75" y="105" width="1078.5" height="374.25" fill="#000b25"/><g opacity="0.25" clip-path="url(#banner-jellyfin-grad-rain-clip)" font-family="ui-monospace, SFMono-Regular, Menlo, Consolas, monospace" font-size="16" fill="#ffffff" text-anchor="middle"><g transform="translate(180.00,105)"><g><animateTransform attributeName="transform" type="translate" values="0,-1120;0,0" dur="26.67s" begin="-0.00s" repeatCount="indefinite"/><text y="35.0" font-weight="700">Biosias</text><text y="175.0" font-weight="700">WizardOfYendor1</text><text y="315.0" font-weight="700">gabeluci</text><text y="455.0" font-weight="700">lcorbasson</text><text y="595.0" font-weight="700">twsouthwick</text><text y="735.0">Bond-009</text><text y="875.0">JPVenson</text><text y="1015.0">Lampan-git</text><text y="1155.0" font-weight="700">Biosias</text><text y="1295.0" font-weight="700">WizardOfYendor1</text><text y="1435.0" font-weight="700">gabeluci</text><text y="1575.0" font-weight="700">lcorbasson</text><text y="1715.0" font-weight="700">twsouthwick</text><text y="1855.0">Bond-009</text><text y="1995.0">JPVenson</text><text y="2135.0">Lampan-git</text></g></g><g transform="translate(540.00,105)"><g><animateTransform attributeName="transform" type="translate" values="0,-1120;0,0" dur="26.67s" begin="-1.91s" repeatCount="indefinite"/><text y="35.0" font-weight="700">ExpctING</text><text y="175.0" font-weight="700">benbenmoss</text><text y="315.0" font-weight="700">itz4blitz</text><text y="455.0" font-weight="700">llaforest</text><text y="595.0">Shadowghost</text><text y="735.0">dkanada</text><text y="875.0">nielsvanvelzen</text><text y="1015.0">renovate[bot]</text><text y="1155.0" font-weight="700">ExpctING</text><text y="1295.0" font-weight="700">benbenmoss</text><text y="1435.0" font-weight="700">itz4blitz</text><text y="1575.0" font-weight="700">llaforest</text><text y="1715.0">Shadowghost</text><text y="1855.0">dkanada</text><text y="1995.0">nielsvanvelzen</text><text y="2135.0">renovate[bot]</text></g></g><g transform="translate(900.00,105)"><g><animateTransform attributeName="transform" type="translate" values="0,-1120;0,0" dur="26.67s" begin="-3.82s" repeatCount="indefinite"/><text y="35.0" font-weight="700">LmanTW</text><text y="175.0" font-weight="700">bittoby</text><text y="315.0" font-weight="700">johnpc</text><text y="455.0" font-weight="700">poytiis</text><text y="595.0">tjwalkr3</text><text y="735.0">IDisposable</text><text y="875.0">KGT1</text><text y="1015.0">MBR-0001</text><text y="1155.0" font-weight="700">LmanTW</text><text y="1295.0" font-weight="700">bittoby</text><text y="1435.0" font-weight="700">johnpc</text><text y="1575.0" font-weight="700">poytiis</text><text y="1715.0">tjwalkr3</text><text y="1855.0">IDisposable</text><text y="1995.0">KGT1</text><text y="2135.0">MBR-0001</text></g></g><g transform="translate(360.00,105)"><g><animateTransform attributeName="transform" type="translate" values="0,-1120;0,0" dur="26.67s" begin="-5.73s" repeatCount="indefinite"/><text y="105.0" font-weight="700">MSalman5230</text><text y="245.0" font-weight="700">dwandw</text><text y="385.0" font-weight="700">jskoetsier</text><text y="525.0" font-weight="700">sevenrats</text><text y="665.0">TheMelmacian</text><text y="805.0">gnattu</text><text y="945.0">nyanmisaka</text><text y="1085.0">theguymadmax</text><text y="1225.0" font-weight="700">MSalman5230</text><text y="1365.0" font-weight="700">dwandw</text><text y="1505.0" font-weight="700">jskoetsier</text><text y="1645.0" font-weight="700">sevenrats</text><text y="1785.0">TheMelmacian</text><text y="1925.0">gnattu</text><text y="2065.0">nyanmisaka</text><text y="2205.0">theguymadmax</text></g></g><g transform="translate(720.00,105)"><g><animateTransform attributeName="transform" type="translate" values="0,-1120;0,0" dur="26.67s" begin="-7.64s" repeatCount="indefinite"/><text y="105.0" font-weight="700">PERSONALPANCHIWIRIS</text><text y="245.0" font-weight="700">dyld-w</text><text y="385.0" font-weight="700">jtvhd6</text><text y="525.0" font-weight="700">tcsenpai</text><text y="665.0" font-weight="700">Biosias</text><text y="805.0">Shadowghost</text><text y="945.0" font-weight="700">johnpc</text><text y="1085.0">theguymadmax</text><text y="1225.0" font-weight="700">PERSONALPANCHIWIRIS</text><text y="1365.0" font-weight="700">dyld-w</text><text y="1505.0" font-weight="700">jtvhd6</text><text y="1645.0" font-weight="700">tcsenpai</text><text y="1785.0" font-weight="700">Biosias</text><text y="1925.0">Shadowghost</text><text y="2065.0" font-weight="700">johnpc</text><text y="2205.0">theguymadmax</text></g></g></g><g transform="translate(465.00,138.00) scale(0.29297)"><path fill="url(#banner-jellyfin-grad)" fill-rule="evenodd" d="M256,23.3c-61.6,0-259.8,359.4-229.6,420.1s429.3,60,459.2,0S317.6,23.3,256,23.3zM406.5,390.8c-19.6,39.3-281.1,39.8-300.9,0s110.1-275.3,150.4-275.3S426.1,351.4,406.5,390.8z"/><path fill="url(#banner-jellyfin-grad)" d="M256,201.6c-20.4,0-86.2,119.3-76.2,139.4s142.5,19.9,152.4,0S276.5,201.6,256,201.6z"/></g><text x="162.0" y="354.0" text-anchor="middle" font-size="18" font-family="Plus Jakarta Sans, system-ui, -apple-system, Segoe UI, sans-serif" fill="#ffffff" opacity="0.85">Issues Closed</text><text x="162.0" y="399.0" text-anchor="middle" font-size="36" font-weight="700" font-family="Plus Jakarta Sans, system-ui, -apple-system, Segoe UI, sans-serif" fill="#ef4444">182</text><text x="414.0" y="354.0" text-anchor="middle" font-size="18" font-family="Plus Jakarta Sans, system-ui, -apple-system, Segoe UI, sans-serif" fill="#ffffff" opacity="0.85">PRs Merged</text><text x="414.0" y="399.0" text-anchor="middle" font-size="36" font-weight="700" font-family="Plus Jakarta Sans, system-ui, -apple-system, Segoe UI, sans-serif" fill="#22c55e">91</text><text x="666.0" y="354.0" text-anchor="middle" font-size="18" font-family="Plus Jakarta Sans, system-ui, -apple-system, Segoe UI, sans-serif" fill="#ffffff" opacity="0.85">Contributors</text><text x="666.0" y="399.0" text-anchor="middle" font-size="36" font-weight="700" font-family="Plus Jakarta Sans, system-ui, -apple-system, Segoe UI, sans-serif" fill="#eab308">36</text><text x="918.0" y="354.0" text-anchor="middle" font-size="18" font-family="Plus Jakarta Sans, system-ui, -apple-system, Segoe UI, sans-serif" fill="#ffffff" opacity="0.85">New Contributors</text><text x="918.0" y="399.0" text-anchor="middle" font-size="36" font-weight="700" font-family="Plus Jakarta Sans, system-ui, -apple-system, Segoe UI, sans-serif" fill="#AA5CC3">21</text><text x="540.0" y="444.0" text-anchor="middle" font-size="15" font-family="Plus Jakarta Sans, system-ui, -apple-system, Segoe UI, sans-serif" fill="#ffffff" opacity="0.6">Last 30 Days</text></g><rect x="0.75" y="0.75" width="1078.5" height="478.5" rx="10" ry="10" fill="none" stroke="url(#banner-jellyfin-grad)" stroke-width="1.5"/></svg>