<svg viewBox="0 0 1080 480" width="100%" xmlns="http://www.w3.org/2000/svg" role="img" aria-label="Jellyfin"><defs><linearGradient id="banner-jellyfin-grad" x1="0" y1="0" x2="1" y2="0"><stop offset="0%" stop-color="#AA5CC3"/><stop offset="100%" stop-color="#00A4DC"/></linearGradient><clipPath id="banner-jellyfin-grad-clip"><rect x="0.75" y="0.75" width="1078.5" height="478.5" rx="10" ry="10"/></clipPath></defs><g clip-path="url(#banner-jellyfin-grad-clip)"><path d="M0.75,10.75 A10.0,10.0 0 0 1 10.75,0.75 L1069.25,0.75 A10.0,10.0 0 0 1 1079.25,10.75 L1079.25,105.00 L0.75,105.00 Z" fill="url(#banner-jellyfin-grad)"/><text x="540.0" y="51" text-anchor="middle" font-size="33" font-weight="700" font-family="Plus Jakarta Sans, system-ui, -apple-system, Segoe UI, sans-serif" fill="#ffffff">Jellyfin</text><text x="540.0" y="84" text-anchor="middle" font-size="20" font-family="Plus Jakarta Sans, system-ui, -apple-system, Segoe UI, sans-serif" fill="#ffffff" opacity="0.85">The Free Software Media System</text><rect x="0.75" y="105" width="1078.5" height="374.25" fill="#000b25"/><g transform="translate(465.00,138.00) scale(0.29297)"><path fill="url(#banner-jellyfin-grad)" fill-rule="evenodd" d="M256,23.3c-61.6,0-259.8,359.4-229.6,420.1s429.3,60,459.2,0S317.6,23.3,256,23.3zM406.5,390.8c-19.6,39.3-281.1,39.8-300.9,0s110.1-275.3,150.4-275.3S426.1,351.4,406.5,390.8z"/><path fill="url(#banner-jellyfin-grad)" d="M256,201.6c-20.4,0-86.2,119.3-76.2,139.4s142.5,19.9,152.4,0S276.5,201.6,256,201.6z"/></g><text x="162.0" y="354.0" text-anchor="middle" font-size="18" font-family="Plus Jakarta Sans, system-ui, -apple-system, Segoe UI, sans-serif" fill="#ffffff" opacity="0.85">Issues Closed</text><text x="162.0" y="399.0" text-anchor="middle" font-size="36" font-weight="700" font-family="Plus Jakarta Sans, system-ui, -apple-system, Segoe UI, sans-serif" fill="#ef4444">182</text><text x="414.0" y="354.0" text-anchor="middle" font-size="18" font-family="Plus Jakarta Sans, system-ui, -apple-system, Segoe UI, sans-serif" fill="#ffffff" opacity="0.85">PRs Merged</text><text x="414.0" y="399.0" text-anchor="middle" font-size="36" font-weight="700" font-family="Plus Jakarta Sans, system-ui, -apple-system, Segoe UI, sans-serif" fill="#22c55e">92</text><text x="666.0" y="354.0" text-anchor="middle" font-size="18" font-family="Plus Jakarta Sans, system-ui, -apple-system, Segoe UI, sans-serif" fill="#ffffff" opacity="0.85">Contributors</text><text x="666.0" y="399.0" text-anchor="middle" font-size="36" font-weight="700" font-family="Plus Jakarta Sans, system-ui, -apple-system, Segoe UI, sans-serif" fill="#eab308">39</text><text x="918.0" y="354.0" text-anchor="middle" font-size="18" font-family="Plus Jakarta Sans, system-ui, -apple-system, Segoe UI, sans-serif" fill="#ffffff" opacity="0.85">New Contributors</text><text x="918.0" y="399.0" text-anchor="middle" font-size="36" font-weight="700" font-family="Plus Jakarta Sans, system-ui, -apple-system, Segoe UI, sans-serif" fill="#AA5CC3">22</text><text x="540.0" y="444.0" text-anchor="middle" font-size="15" font-family="Plus Jakarta Sans, system-ui, -apple-system, Segoe UI, sans-serif" fill="#ffffff" opacity="0.6">Last 30 Days</text></g><rect x="0.75" y="0.75" width="1078.5" height="478.5" rx="10" ry="10" fill="none" stroke="url(#banner-jellyfin-grad)" stroke-width="1.5"/></svg>