<svg viewBox="0 0 720 320" width="100%" xmlns="http://www.w3.org/2000/svg" role="img" aria-label="Jellyfin Artwork"><defs><linearGradient id="banner-jellyfin-artwork-grad" x1="0" y1="0" x2="1" y2="0"><stop offset="0%" stop-color="#AA5CC3"/><stop offset="100%" stop-color="#00A4DC"/></linearGradient></defs><path d="M0.75,10.75 A10.0,10.0 0 0 1 10.75,0.75 L709.25,0.75 A10.0,10.0 0 0 1 719.25,10.75 L719.25,70.00 L0.75,70.00 Z" fill="url(#banner-jellyfin-artwork-grad)"/><text x="360.0" y="34" text-anchor="middle" font-size="22" font-weight="700" font-family="Plus Jakarta Sans, system-ui, -apple-system, Segoe UI, sans-serif" fill="#ffffff">Jellyfin Artwork</text><text x="360.0" y="56" text-anchor="middle" font-size="13" font-family="Plus Jakarta Sans, system-ui, -apple-system, Segoe UI, sans-serif" fill="#ffffff" opacity="0.85">Part of the Jellyfin Project</text><rect x="0.75" y="70" width="718.5" height="249.25" fill="#000b25"/><g transform="translate(310.00,92.00) scale(0.19531)"><path fill="url(#banner-jellyfin-artwork-grad)" fill-rule="evenodd" d="M256,23.3c-61.6,0-259.8,359.4-229.6,420.1s429.3,60,459.2,0S317.6,23.3,256,23.3zM406.5,390.8c-19.6,39.3-281.1,39.8-300.9,0s110.1-275.3,150.4-275.3S426.1,351.4,406.5,390.8z"/><path fill="url(#banner-jellyfin-artwork-grad)" d="M256,201.6c-20.4,0-86.2,119.3-76.2,139.4s142.5,19.9,152.4,0S276.5,201.6,256,201.6z"/></g><text x="360.0" y="272.0" text-anchor="middle" font-size="13" font-family="Plus Jakarta Sans, system-ui, -apple-system, Segoe UI, sans-serif" fill="#ffffff" opacity="0.7">No activity in the last 30 days</text><rect x="0.75" y="0.75" width="718.5" height="318.5" rx="10" ry="10" fill="none" stroke="url(#banner-jellyfin-artwork-grad)" stroke-width="1.5"/></svg>